<svg xmlns="http://www.w3.org/2000/svg" viewBox="333 165 996.227 209.43"><defs><style>.a{fill:#00aeef;}.b{fill:#2690be;}</style></defs><path class="a" d="M103.59,75.76a31.229,31.229,0,0,0-2.38-2.66,1.1,1.1,0,0,0-.16-.15L31.12,3s-.94-1-1.28-1.28a5.28,5.28,0,0,0-1-.7h0a7.67,7.67,0,0,0-2-.76,8,8,0,0,0-9,11.54l.36.61L55.39,74.92c.47.76.94,1.53,1.38,2.3l.41.71L59,81a31.23,31.23,0,0,1,2,4.83l.27.66a32.37,32.37,0,0,1-3.35,26.25c-.36.58-1.92,2.85-2.65,3.91l-.38.55L1.41,195.86A8,8,0,0,0,9.5,208.25a7.08,7.08,0,0,0,3.43-1.56c.36-.32,1.37-1.38,1.37-1.38l18.79-18.79,11.07-11.07c.39-.39.76-.8,1.13-1.2l55.92-55.91c.78-.78,1.51-1.59,2.2-2.43A32,32,0,0,0,103.59,75.76Z" transform="translate(332.997 166.039)"/><path class="a" d="M205.43,165.05h0a6.7,6.7,0,0,0-.52-.67h0l-.34-.5-37.7-55.38v-.06a18.71,18.71,0,0,1-1.86-2.72c-.12-.2-.22-.41-.33-.62a20,20,0,0,1,1.58-21h0l2.93-4.8L193.4,39.58l1.18-2,.08-.14a7.9,7.9,0,0,0,.93-3.74,8.13,8.13,0,0,0-1.1-4,8,8,0,0,0-7.63-3.92,5.87,5.87,0,0,0-1.15.19,9,9,0,0,0-2.31,1c-.21.13-1,.79-1.44,1.14l-.3.3-11.05,11-36.06,36a32,32,0,0,0,2,43L192.19,174l.72.72.8.8a7.93,7.93,0,0,0,5.25,2,8.109,8.109,0,0,0,2.38-.36l.37-.13.46-.19a8,8,0,0,0,3.26-11.78Z" transform="translate(332.997 166.039)"/><path class="b" d="M61.07,85.78a32.37,32.37,0,0,1-3.15,26.91c-.36.58-1.92,2.85-2.65,3.91l-.38.55L1.41,195.86A8,8,0,0,0,9.5,208.25a7.08,7.08,0,0,0,3.43-1.56c.36-.32,1.37-1.38,1.37-1.38l18.79-18.79,11.07-11.07A82.28,82.28,0,0,0,61.07,85.78Z" transform="translate(332.997 166.039)"/><circle class="a" cx="20" cy="20" r="20" transform="translate(423.554 193.284) rotate(-45)"/><path class="a" d="M326.19,71.38V97.7a31.53,31.53,0,0,1-4.09,15.9,29.76,29.76,0,0,1-11.2,11.26,32.76,32.76,0,0,1-31.7,0A29.73,29.73,0,0,1,268,113.61a31.52,31.52,0,0,1-4.09-15.9,31.92,31.92,0,0,1,4-15.85,29.5,29.5,0,0,1,26.26-15.29,29,29,0,0,1,13.33,3.08,27.73,27.73,0,0,1,10,8.46V45.29a4.22,4.22,0,0,1,4.37-4.37,4.07,4.07,0,0,1,3.08,1.23,4.37,4.37,0,0,1,1.18,3.14V70.37a3.451,3.451,0,0,1,.06,1.01ZM306.59,118a22.22,22.22,0,0,0,8.12-8.4,24.07,24.07,0,0,0,3-11.93,25.427,25.427,0,0,0-.11-2.8,1.23,1.23,0,0,1-.11-.56A22.48,22.48,0,0,0,310.12,80a21.72,21.72,0,0,0-15.06-5.6,22.66,22.66,0,0,0-11.59,3,21.68,21.68,0,0,0-8.18,8.34,25.45,25.45,0,0,0,0,23.86,22.07,22.07,0,0,0,8.18,8.4,22.33,22.33,0,0,0,11.59,3.08A22,22,0,0,0,306.59,118Z" transform="translate(332.997 166.039)"/><path class="a" d="M387.12,70.43A26.38,26.38,0,0,1,397,81.13a33.44,33.44,0,0,1,3.53,15.57,3.76,3.76,0,0,1-1.12,2.86,4.05,4.05,0,0,1-2.91,1.06H351.28a22,22,0,0,0,22.85,20.61,24.91,24.91,0,0,0,8.12-1.4,19.69,19.69,0,0,0,6.55-3.53,4.9,4.9,0,0,1,3-1.12,4.18,4.18,0,0,1,2.46.9,4,4,0,0,1,1.46,3,3.4,3.4,0,0,1-1.23,2.58,30.421,30.421,0,0,1-9.41,5.21,32.46,32.46,0,0,1-27-1.9,28.36,28.36,0,0,1-11-11.09,32.37,32.37,0,0,1-4-16.07,34.14,34.14,0,0,1,3.75-16.18,27.63,27.63,0,0,1,10.42-11.09,29.05,29.05,0,0,1,15.18-4,27.77,27.77,0,0,1,14.69,3.89Zm-28.78,9.13a22.81,22.81,0,0,0-6.83,13.89h41q-.9-8.62-6.27-13.89a18.87,18.87,0,0,0-13.78-5.26,19.79,19.79,0,0,0-14.12,5.26Z" transform="translate(332.997 166.039)"/><path class="a" d="M450.23,67.69Q453,68.92,453,71.16a3.453,3.453,0,0,1-.11,1,3.41,3.41,0,0,1-1.4,2.13,5.19,5.19,0,0,1-2.63.56q-1,0-3.47-.22a23.869,23.869,0,0,0-2.69-.11q-8.4,0-13.72,4.48a14.51,14.51,0,0,0-5.32,11.65v33.49a4.26,4.26,0,1,1-8.51,0V71.38a4.26,4.26,0,1,1,8.51,0v4.93A22.229,22.229,0,0,1,431.92,69a23.53,23.53,0,0,1,10.86-2.58,18.53,18.53,0,0,1,7.45,1.27Z" transform="translate(332.997 166.039)"/><path class="a" d="M542.63,69.59a21.24,21.24,0,0,1,8,8.9,29.8,29.8,0,0,1,2.86,13.38v32.26a4,4,0,0,1-4.26,4.26,4.36,4.36,0,0,1-3.14-1.18,4.06,4.06,0,0,1-1.23-3.08V91.88q0-8-4.09-12.6A13.57,13.57,0,0,0,530,74.63a14.86,14.86,0,0,0-11.42,4.7q-4.37,4.7-4.26,12.32v32.48a4,4,0,0,1-4.26,4.26,4.36,4.36,0,0,1-3.14-1.18,4.06,4.06,0,0,1-1.23-3.08V91.88q0-8-4.09-12.6a13.57,13.57,0,0,0-10.7-4.65,15.28,15.28,0,0,0-11.42,4.59A16.14,16.14,0,0,0,475,91v33.15a4,4,0,0,1-4.26,4.26,4.36,4.36,0,0,1-3.14-1.18,4.06,4.06,0,0,1-1.23-3.08V71.49a4.22,4.22,0,0,1,4.37-4.37,4.07,4.07,0,0,1,3.08,1.23A4.37,4.37,0,0,1,475,71.49V74a21.75,21.75,0,0,1,7.45-5.54,22.34,22.34,0,0,1,9.35-2,22.06,22.06,0,0,1,11.09,2.8,20.82,20.82,0,0,1,7.84,7.84,22.73,22.73,0,0,1,8.46-7.84,24.34,24.34,0,0,1,11.7-2.8,21.89,21.89,0,0,1,11.74,3.13Z" transform="translate(332.997 166.039)"/><path class="a" d="M616.21,70.65a29.78,29.78,0,0,1,11.2,11.26,31.53,31.53,0,0,1,4.09,15.9v26.32a4.11,4.11,0,0,1-1.23,3,4.25,4.25,0,0,1-3.14,1.23,4.36,4.36,0,0,1-3.14-1.18,4.06,4.06,0,0,1-1.23-3.08v-6.72a27.72,27.72,0,0,1-10,8.46A28.929,28.929,0,0,1,599.47,129a29.5,29.5,0,0,1-26.26-15.29,31.92,31.92,0,0,1-4-15.85,31.52,31.52,0,0,1,4.09-15.9A29.76,29.76,0,0,1,584.5,70.7a32.76,32.76,0,0,1,31.7,0Zm-4.31,47.43a21.81,21.81,0,0,0,8.12-8.34,25.45,25.45,0,0,0,0-23.86,22.58,22.58,0,0,0-39.42,0,25.45,25.45,0,0,0,0,23.86,21.66,21.66,0,0,0,8.18,8.34,22.66,22.66,0,0,0,11.59,3,22.36,22.36,0,0,0,11.53-2.99Z" transform="translate(332.997 166.039)"/><path class="b" d="M645.72,128.28a6.58,6.58,0,0,1,4.59-11.2,6.18,6.18,0,0,1,4.59,2,6.516,6.516,0,1,1-9.19,9.24Z" transform="translate(370.997 166.039)"/><path class="b" d="M684.14,124.86a29.39,29.39,0,0,1-10.92-11.2,31.92,31.92,0,0,1-4-15.85A33.509,33.509,0,0,1,673,81.74,28.3,28.3,0,0,1,683.58,70.6a28.82,28.82,0,0,1,15.12-4,27.92,27.92,0,0,1,22.74,10.75,3.43,3.43,0,0,1,.9,2.35,3.83,3.83,0,0,1-1.9,3.14,3.78,3.78,0,0,1-2.13.67A4.49,4.49,0,0,1,715,81.8a22.9,22.9,0,0,0-7.39-5.54,21.26,21.26,0,0,0-9-1.85,20.5,20.5,0,0,0-11,3,19.74,19.74,0,0,0-7.45,8.34,27.13,27.13,0,0,0-2.63,12.1,25.2,25.2,0,0,0,2.8,11.93,20.83,20.83,0,0,0,7.84,8.34,22,22,0,0,0,11.54,3q9,0,14.45-4.82a4.64,4.64,0,0,1,3-1.23,3.86,3.86,0,0,1,2.46.9,3.93,3.93,0,0,1,1.57,3,3.2,3.2,0,0,1-1.12,2.46q-8.06,7.5-20.38,7.5a30.31,30.31,0,0,1-15.55-4.07Z" transform="translate(367.997 166.039)"/><path class="b" d="M741.31,123Q737,117.53,737,109V45.17a4.06,4.06,0,0,1,1.23-3.08,4.21,4.21,0,0,1,3-1.18,4,4,0,0,1,4.26,4.26V109a14.18,14.18,0,0,0,2,7.84,5.79,5.79,0,0,0,5,3h2.8a3.36,3.36,0,0,1,2.69,1.18,4.57,4.57,0,0,1,1,3.08,3.83,3.83,0,0,1-1.4,3.08,5.47,5.47,0,0,1-3.64,1.18h-1.46A13.58,13.58,0,0,1,741.31,123Z" transform="translate(367.997 166.039)"/><path class="a" d="M741.31,123Q737,117.53,737,109V45.17a4.06,4.06,0,0,1,1.23-3.08,4.21,4.21,0,0,1,3-1.18,4,4,0,0,1,4.26,4.26V109a14.18,14.18,0,0,0,2,7.84,5.79,5.79,0,0,0,5,3h2.8a3.36,3.36,0,0,1,2.69,1.18,4.57,4.57,0,0,1,1,3.08,3.83,3.83,0,0,1-1.4,3.08,5.47,5.47,0,0,1-3.64,1.18h-1.46A13.58,13.58,0,0,1,741.31,123Z" transform="translate(241.997 166.099)"/><path class="b" d="M772.56,53.69a6,6,0,0,1-1.74-4.37,5.71,5.71,0,0,1,1.8-4.32A6.15,6.15,0,0,1,777,43.27,6,6,0,0,1,781.24,45,5.72,5.72,0,0,1,783,49.32a6.12,6.12,0,0,1-6.16,6.16,5.75,5.75,0,0,1-4.28-1.79Zm1.29,73.47a4.24,4.24,0,0,1-1.23-3.14V71.49A4.22,4.22,0,0,1,777,67.13a4.07,4.07,0,0,1,3.08,1.23,4.36,4.36,0,0,1,1.18,3.14V124a4.36,4.36,0,0,1-1.18,3.14,4.06,4.06,0,0,1-3.08,1.23,4.24,4.24,0,0,1-3.15-1.21Z" transform="translate(367.997 165.731)"/><path class="b" d="M846.48,69.81a24.11,24.11,0,0,1,9.91,9.8A31.21,31.21,0,0,1,860,95v29.12a4.363,4.363,0,0,1-7.4,3.03,4.11,4.11,0,0,1-1.23-3V95q0-10-5.54-15.18t-14.5-5.21a22.59,22.59,0,0,0-9.91,2.13,17.47,17.47,0,0,0-7,5.88,14.41,14.41,0,0,0-2.6,8.38v33.15a4,4,0,0,1-4.26,4.26,4.36,4.36,0,0,1-3.14-1.18,4.06,4.06,0,0,1-1.23-3.08V71.49a4.22,4.22,0,0,1,4.37-4.37,4.07,4.07,0,0,1,3.08,1.23,4.36,4.36,0,0,1,1.18,3.14V75.3a26.121,26.121,0,0,1,9-6.5,27.681,27.681,0,0,1,11.42-2.35,30,30,0,0,1,14.24,3.36Z" transform="translate(367.997 166.039)"/><path class="b" d="M880.75,53.69A6,6,0,0,1,879,49.32,5.71,5.71,0,0,1,880.81,45a6.15,6.15,0,0,1,4.37-1.68A6,6,0,0,1,889.43,45a5.72,5.72,0,0,1,1.79,4.37,6.12,6.12,0,0,1-6.16,6.16,5.75,5.75,0,0,1-4.31-1.84ZM882,127.16a4.24,4.24,0,0,1-1.23-3.14V71.49a4.22,4.22,0,0,1,4.37-4.37,4.07,4.07,0,0,1,3.08,1.23,4.37,4.37,0,0,1,1.18,3.14V124a4.36,4.36,0,0,1-1.18,3.14,4.06,4.06,0,0,1-3.08,1.23A4.24,4.24,0,0,1,882,127.16Z" transform="translate(367.997 166.039)"/><path class="b" d="M923,124.86a29.391,29.391,0,0,1-10.92-11.2,31.919,31.919,0,0,1-4-15.85,33.51,33.51,0,0,1,3.81-16.07A28.3,28.3,0,0,1,922.47,70.6a28.819,28.819,0,0,1,15.12-4,27.92,27.92,0,0,1,22.74,10.75,3.43,3.43,0,0,1,.9,2.35,3.83,3.83,0,0,1-1.9,3.14,3.78,3.78,0,0,1-2.13.67,4.49,4.49,0,0,1-3.25-1.68,22.9,22.9,0,0,0-7.39-5.54,21.26,21.26,0,0,0-9-1.85,20.5,20.5,0,0,0-11,3,19.74,19.74,0,0,0-7.45,8.34,27.129,27.129,0,0,0-2.63,12.1,25.2,25.2,0,0,0,2.8,11.93,20.83,20.83,0,0,0,7.84,8.34,22,22,0,0,0,11.54,3q9,0,14.45-4.82a4.64,4.64,0,0,1,3-1.23,3.86,3.86,0,0,1,2.46.9,3.93,3.93,0,0,1,1.57,3,3.2,3.2,0,0,1-1.12,2.46Q951,129,938.71,129A30.31,30.31,0,0,1,923,124.86Z" transform="translate(367.997 166.039)"/><path class="b" d="M182,28l-.3.3.23-.24Z" transform="translate(332.997 166.039)"/><path class="b" d="M195.6,33.64a7.9,7.9,0,0,1-.93,3.74l-.08.14-1.18,2L169.2,79.2,166.27,84h0a20,20,0,0,0-1.58,21,52.18,52.18,0,0,1,6-65.71l11-11,.3-.3c.4-.35,1.23-1,1.44-1.14a9,9,0,0,1,2.31-1,5.87,5.87,0,0,1,1.15-.19,8,8,0,0,1,7.63,3.92,8.13,8.13,0,0,1,1.08,4.06Z" transform="translate(332.997 166.039)"/><path class="b" d="M182,28l-.3.3.23-.24Z" transform="translate(332.997 166.039)"/></svg>